<?xml version="1.0" standalone="no"?>
<!DOCTYPE svg PUBLIC "-//W3C//DTD SVG 1.1//EN" "http://www.w3.org/Graphics/SVG/1.1/DTD/svg11.dtd" >
<svg xmlns="http://www.w3.org/2000/svg">
<metadata>Generated by IcoMoon</metadata>
<defs>
<font id="supico" horiz-adv-x="512">
<font-face units-per-em="512" ascent="480" descent="-32" />
<missing-glyph horiz-adv-x="512" />
<glyph unicode="&#x20;" d="" horiz-adv-x="256" />
<glyph unicode="&#xe600;" d="M69.468 117.781c-1.778 1.85-3.829 3.421-6.096 4.662-2.28 1.249-4.659 2.377-7.071 3.353-2.376 0.961-4.759 1.873-7.085 2.714-2.328 0.842-4.453 1.785-6.32 2.805-1.904 1.041-3.459 2.274-4.615 3.663-1.205 1.442-1.815 3.248-1.815 5.37 0 1.887 0.3 3.651 0.888 5.243 0.598 1.608 1.505 3.029 2.699 4.225 1.196 1.195 2.703 2.139 4.477 2.807 1.767 0.668 3.842 1.004 6.169 1.004 2.53 0 4.773-0.389 6.663-1.159 1.844-0.745 3.505-1.582 4.931-2.488 1.403-0.884 2.668-1.695 3.8-2.434 2.079-1.353 4.263-1.199 5.706-0.289 0.782 0.493 1.572 1.298 2.349 2.397l6.915 9.455c-1.323 1.613-2.928 3.131-4.778 4.517-2.007 1.505-4.267 2.829-6.72 3.935-2.457 1.106-5.127 1.983-7.932 2.607-2.819 0.627-5.755 0.943-8.726 0.943-5.821 0-11.135-0.997-15.79-2.966-4.657-1.968-8.671-4.644-11.931-7.95-3.261-3.308-5.8-7.159-7.55-11.449-1.751-4.293-2.637-8.829-2.637-13.479 0-4.020 0.543-7.443 1.611-10.169 1.070-2.736 2.488-5.067 4.212-6.93 1.727-1.873 3.733-3.409 5.963-4.57 2.277-1.188 4.628-2.229 6.987-3.095 2.435-0.894 4.807-1.722 7.050-2.461 2.333-0.772 4.44-1.668 6.263-2.664 1.873-1.029 3.406-2.303 4.555-3.788 1.194-1.541 1.801-3.515 1.801-5.87 0-4.925-1.295-8.717-3.847-11.267-2.554-2.555-6.198-3.851-10.83-3.851-3.127 0-5.813 0.507-7.98 1.501-2.117 0.972-4.003 2.061-5.605 3.236l-4.31 3.171c-2.055 1.512-4.229 1.699-6.384 0.569-0.935-0.49-1.702-1.123-2.277-1.872l-8.211-10.761c1.605-1.892 3.547-3.64 5.78-5.204 2.401-1.683 5.049-3.159 7.87-4.387 2.817-1.228 5.797-2.192 8.86-2.868 3.055-0.674 6.141-1.019 9.169-1.019 6.108 0 11.679 1.035 16.564 3.079 4.876 2.043 9.073 4.839 12.478 8.32 3.401 3.471 6.054 7.593 7.883 12.252 1.825 4.658 2.748 9.707 2.748 14.998 0 3.678-0.54 6.858-1.605 9.458-1.070 2.613-2.51 4.87-4.279 6.709zM131.506 139.147l-4.863-39.828c-0.914-3.038-2.061-5.74-3.434-8.14-1.376-2.397-2.882-4.459-4.48-6.133-1.617-1.692-3.323-3.025-5.070-3.957-1.786-0.957-3.518-1.444-5.145-1.444-2.016 0-3.564 0.598-4.6 1.775-1.032 1.173-1.534 3.103-1.534 5.904 0 0.606 0.027 1.246 0.076 1.926 0.049 0.674 0.124 1.413 0.224 2.212l5.654 47.69h-21.454l-5.674-47.853c-0.095-0.966-0.183-1.916-0.254-2.845-0.072-0.896-0.108-1.795-0.108-2.676 0-3.695 0.471-7.003 1.401-9.834 0.924-2.823 2.24-5.222 3.913-7.126 1.671-1.908 3.671-3.375 5.947-4.356 2.286-0.991 4.832-1.494 7.569-1.494 4.431 0 8.76 1.091 12.865 3.24 4.122 2.159 8.038 5.541 11.641 10.061l1.216 1.526v-6.814c0-4.595 2.425-6.832 7.418-6.832h11.031l9.114 75.005-21.454-0.004zM228.080 124.95c-1.026 3.553-2.471 6.507-4.297 8.786-1.809 2.253-3.987 3.933-6.474 4.99-2.502 1.060-5.311 1.599-8.347 1.599-4.708 0-9.194-1.326-13.333-3.943-4.187-2.651-8.038-6.333-11.447-10.947l-1.232-1.668v8.997c0 2.279-0.588 3.924-1.746 4.887-1.195 0.995-2.906 1.5-5.088 1.5h-11.18l-13.28-106.111h20.87l4.852 36.284 0.96-0.858c1.856-1.662 4.019-3.007 6.433-3.998 2.414-0.996 5.201-1.502 8.284-1.502 4.764 0 9.392 1.322 13.756 3.921 4.389 2.615 8.325 6.212 11.696 10.688 3.377 4.488 6.106 9.762 8.112 15.676 2.002 5.92 3.019 12.25 3.019 18.82-0 4.966-0.523 9.3-1.554 12.88zM206.938 98.353c-0.923-3.728-2.22-7.092-3.862-10.002-1.661-2.939-3.662-5.348-5.954-7.159-2.346-1.858-4.955-2.8-7.75-2.8-1.62 0-3.356 0.257-5.156 0.761-1.827 0.514-3.506 1.373-4.989 2.553l-0.3 0.238 2.329 18.791c0.958 3.313 2.151 6.373 3.565 9.207 1.415 2.83 2.949 5.333 4.56 7.437 1.62 2.122 3.343 3.83 5.121 5.079 1.83 1.282 3.621 1.931 5.327 1.931 2.591 0 4.691-1.222 6.244-3.63 1.49-2.31 2.244-6.001 2.244-10.971 0.002-3.873-0.462-7.721-1.379-11.436zM335.286 134.606c-1.572 1.875-3.492 3.312-5.712 4.269-2.236 0.964-4.759 1.451-7.499 1.451-4.902 0-9.358-1.298-13.247-3.862-3.923-2.582-7.592-6.696-10.911-12.228l-0.983-1.64-0.279 1.892c-0.76 5.175-2.527 9.159-5.253 11.839-2.7 2.652-6.156 3.997-10.273 3.997-3.793 0-7.468-1.019-10.923-3.034-3.494-2.033-6.868-5.205-10.033-9.433l-1.229-1.641v6.545c0 2.279-0.587 3.923-1.745 4.887-1.195 0.995-2.907 1.498-5.087 1.498h-11.178l-9.113-75.003h21.010l4.937 40.861c0.81 2.872 1.74 5.421 2.782 7.683 1.053 2.279 2.233 4.245 3.51 5.842 1.298 1.631 2.711 2.903 4.199 3.776 1.526 0.892 3.13 1.346 4.769 1.346 1.78 0 3.146-0.583 4.066-1.73 0.894-1.12 1.327-2.969 1.327-5.657 0-0.653-0.027-1.329-0.075-2.034-0.052-0.7-0.125-1.468-0.226-2.315l-5.652-47.771h21.159l4.865 41.23c0.813 2.83 1.743 5.328 2.783 7.539 1.053 2.222 2.232 4.154 3.51 5.734 1.299 1.605 2.702 2.847 4.166 3.696 1.498 0.868 3.086 1.308 4.724 1.308 1.784 0 3.154-0.583 4.071-1.731 0.894-1.118 1.325-2.967 1.325-5.656 0-0.652-0.024-1.33-0.075-2.036-0.050-0.698-0.124-1.468-0.222-2.313l-5.654-47.772h21.158l5.674 47.93c0.094 1.010 0.182 2.025 0.253 3.030 0.073 0.96 0.11 1.921 0.11 2.858 0 3.649-0.447 6.899-1.329 9.659-0.87 2.745-2.116 5.094-3.7 6.982zM359.86 151.916c1.146-1.145 2.478-2.065 3.961-2.736 2.951-1.341 6.334-1.336 9.424 0.005 1.56 0.673 2.966 1.596 4.185 2.743 1.212 1.137 2.204 2.483 2.95 3.998 0.735 1.499 1.106 3.12 1.106 4.819 0 1.757-0.363 3.416-1.077 4.935-0.728 1.548-1.695 2.918-2.879 4.076-1.192 1.166-2.567 2.084-4.096 2.731s-3.147 0.976-4.817 0.976c-1.613 0-3.18-0.339-4.651-1.007-1.491-0.675-2.851-1.609-4.040-2.773-1.183-1.163-2.139-2.531-2.837-4.067-0.693-1.522-1.044-3.163-1.044-4.873s0.351-3.336 1.043-4.834c0.7-1.517 1.632-2.86 2.771-3.996zM368.161 64.144l8.967 75.004h-21.159l-8.967-75.004zM433.236 84.574c-0.613 0.295-1.243 0.449-1.873 0.449-1.179 0-2.185-0.294-2.991-0.869-0.93-0.665-1.935-1.387-3.014-2.168-1.101-0.803-2.415-1.557-3.909-2.243-1.531-0.699-3.543-1.052-5.991-1.052-1.668 0-3.252 0.342-4.707 1.019-1.461 0.679-2.757 1.694-3.847 3.017-1.080 1.313-1.94 2.976-2.557 4.945-0.606 1.955-0.913 4.262-0.913 6.87 0 4.614 0.519 8.79 1.535 12.414 1.024 3.64 2.404 6.753 4.107 9.256 1.721 2.526 3.71 4.488 5.92 5.832 2.232 1.36 4.568 2.050 6.943 2.050 1.887 0 3.454-0.224 4.654-0.666 1.171-0.435 2.173-0.901 2.986-1.382 0.791-0.471 1.517-0.913 2.186-1.332 1.017-0.639 2.751-0.773 4.033 0.006 0.637 0.387 1.214 0.832 1.717 1.333l6.957 8.008c-2.738 3.409-5.844 5.955-9.236 7.57-3.548 1.692-7.87 2.55-12.856 2.55-5.854 0-11.301-1.228-16.191-3.648-4.908-2.428-9.209-5.753-12.784-9.887-3.588-4.141-6.422-9.024-8.418-14.517-2-5.49-3.013-11.381-3.013-17.514 0-4.863 0.68-9.298 2.025-13.178 1.337-3.872 3.261-7.21 5.716-9.931 2.452-2.711 5.458-4.834 8.929-6.305 3.478-1.481 7.45-2.234 11.809-2.234 3.231 0 6.223 0.261 8.894 0.767 2.647 0.498 5.18 1.31 7.533 2.411 2.344 1.103 4.649 2.582 6.851 4.4 2.094 1.73 4.311 3.861 6.594 6.339l-5.5 6.464c-0.443 0.524-0.959 0.923-1.588 1.227zM499.454 85.284c-0.596 0.319-1.187 0.473-1.814 0.473-1.046 0-1.954-0.153-2.774-0.471-0.841-0.329-1.652-0.75-2.408-1.257l-2.545-1.695c-0.913-0.609-1.944-1.195-3.060-1.738-1.142-0.56-2.494-1.024-4.009-1.375-1.519-0.352-3.33-0.531-5.384-0.531-4.451 0-7.88 1.287-10.192 3.829-2.287 2.521-3.498 6.512-3.599 11.861l-0.012 0.63 0.625 0.063c8.676 0.878 15.961 2.111 21.65 3.663 5.678 1.546 10.245 3.438 13.575 5.62 3.288 2.151 5.623 4.648 6.942 7.416 1.322 2.786 1.994 5.911 1.994 9.283 0 2.236-0.548 4.515-1.625 6.769-1.086 2.264-2.689 4.334-4.767 6.155-2.091 1.826-4.711 3.333-7.781 4.476-3.067 1.144-6.64 1.724-10.623 1.724-4.026 0-7.884-0.572-11.467-1.697-3.587-1.134-6.923-2.728-9.911-4.741-2.998-2.013-5.74-4.461-8.147-7.276-2.402-2.813-4.468-5.938-6.134-9.288-1.659-3.346-2.954-6.974-3.851-10.786-0.888-3.805-1.34-7.769-1.34-11.777 0-4.753 0.741-9.132 2.199-13.012 1.458-3.87 3.538-7.224 6.186-9.967 2.64-2.738 5.846-4.892 9.524-6.398 3.69-1.506 7.791-2.271 12.187-2.271 3.574 0 6.916 0.298 9.925 0.878 2.995 0.575 5.865 1.486 8.532 2.711 2.672 1.228 5.306 2.813 7.83 4.712 2.377 1.784 4.863 3.929 7.39 6.377l-5.475 6.368c-0.462 0.507-1.019 0.941-1.64 1.274zM465.313 108.712c1.45 5.341 3.661 9.613 6.567 12.7 2.969 3.146 6.481 4.74 10.441 4.74 2.357 0 4.115-0.647 5.229-1.925 1.089-1.252 1.64-2.616 1.64-4.058 0-1.378-0.309-2.685-0.918-3.882-0.625-1.223-1.817-2.355-3.541-3.373-1.675-0.99-4.036-1.904-7.014-2.719-2.969-0.817-6.887-1.604-11.642-2.339l-1.038-0.159 0.276 1.014zM305.283 317.562v10.199c0 17.828-9.227 33.305-22.769 41.095v-1.859c0-7.74-3.243-14.656-8.33-19.226-5.596 2.131-11.604 3.305-17.865 3.321v0.001c-0.021 0-0.044 0-0.063 0v0c-0.010 0-0.022 0-0.031 0s-0.023 0-0.031 0v0c-0.023 0-0.046 0-0.063 0v-0.001c-6.265-0.017-12.269-1.19-17.867-3.321-5.088 4.569-8.333 11.485-8.333 19.226v1.859c-13.54-7.791-22.767-23.267-22.767-41.095v-10.199c-8.022-9.455-12.928-21.656-11.169-35.189 0.796-6.128 5.649-15.252 19.114-19.489 13.094-16.817 24.636 2.882 41.022 2.876v-0.001c0.019 0 0.041 0.001 0.064 0.001v-0.001c0.007 0 0.021 0 0.031 0s0.021 0 0.031 0v0.001c0.020 0 0.043-0.001 0.063-0.001v0.001c16.384 0.005 27.925-19.694 41.019-2.876 13.466 4.238 18.32 13.362 19.113 19.489 1.76 13.534-3.148 25.734-11.168 35.189zM231.424 293.418c-13.086 4.102-12.839 12.803-11.669 19.207l31.707-21.341c-0 0.001-9.147-1.28-20.038 2.135zM281.026 293.418c-10.892-3.417-20.038-2.135-20.038-2.135l31.711 21.342c1.166-6.403 1.411-15.105-11.674-19.207zM256.223 203.185c-58.588 0-106.252 47.665-106.252 106.252s47.665 106.252 106.252 106.252c58.589 0 106.252-47.665 106.252-106.252s-47.663-106.252-106.251-106.252zM256.223 400.51c-50.218 0-91.072-40.855-91.072-91.075 0-50.217 40.856-91.074 91.072-91.074 50.218 0 91.073 40.856 91.073 91.073 0 50.22-40.854 91.075-91.073 91.075z" />
<glyph unicode="&#xe601;" d="M362.454 241.631v22.133c0 38.688-20.024 72.275-49.411 89.178v-4.034c0-16.796-7.036-31.806-18.077-41.721-12.142 4.624-25.182 7.172-38.767 7.207v0.003c-0.045 0-0.096 0-0.137 0v0c-0.022 0-0.046 0-0.067 0-0.024 0-0.049 0-0.069 0v0c-0.049 0-0.1 0-0.137 0v-0.003c-13.596-0.036-26.625-2.584-38.773-7.207-11.041 9.915-18.082 24.923-18.082 41.721v4.034c-29.381-16.906-49.408-50.491-49.408-89.178v-22.133c-17.407-20.519-28.055-46.997-24.239-76.362 1.728-13.298 12.259-33.098 41.481-42.293 28.416-36.495 53.463 6.253 89.020 6.241v-0.002c0.040 0 0.088 0.002 0.138 0.002v-0.002c0.018 0 0.044 0 0.070 0 0.023 0 0.044 0 0.066 0v0.002c0.043 0 0.092-0.002 0.137-0.002v0.002c35.555 0.010 60.601-42.737 89.016-6.241 29.222 9.199 39.757 28.997 41.476 42.293 3.818 29.37-6.832 55.845-24.237 76.362zM202.174 189.24c-28.397 8.901-27.861 27.785-25.322 41.68l68.806-46.313c-0.001 0.002-19.85-2.78-43.484 4.633zM309.815 189.24c-23.636-7.413-43.483-4.633-43.483-4.633l68.817 46.314c2.528-13.895 3.062-32.778-25.334-41.681zM255.992-6.577c-127.142 0-230.579 103.437-230.579 230.576 0 127.141 103.439 230.578 230.579 230.578 127.143 0 230.575-103.437 230.575-230.578 0-127.14-103.432-230.576-230.575-230.576zM255.992 421.639c-108.977 0-197.637-88.659-197.637-197.64 0-108.976 88.66-197.639 197.637-197.639s197.638 88.663 197.638 197.639c0 108.981-88.658 197.64-197.638 197.64z" />
<glyph unicode="&#xe602;" d="M199.782 246.223c-1.191 1.239-2.566 2.291-4.083 3.124-1.529 0.837-3.123 1.591-4.739 2.246-1.592 0.643-3.189 1.256-4.746 1.819-1.56 0.565-2.984 1.196-4.234 1.881-1.278 0.697-2.319 1.523-3.093 2.454-0.806 0.968-1.215 2.178-1.215 3.599 0 1.265 0.2 2.447 0.595 3.514 0.4 1.077 1.008 2.029 1.809 2.831 0.801 0.8 1.811 1.433 3 1.881 1.185 0.446 2.575 0.673 4.135 0.673 1.696 0 3.198-0.262 4.465-0.776 1.237-0.5 2.349-1.060 3.305-1.666 0.94-0.591 1.787-1.137 2.546-1.631 1.393-0.907 2.858-0.803 3.824-0.195 0.524 0.33 1.054 0.87 1.573 1.606l4.635 6.337c-0.887 1.081-1.962 2.098-3.202 3.026-1.345 1.010-2.861 1.896-4.504 2.638-1.647 0.742-3.436 1.33-5.315 1.748-1.888 0.419-3.857 0.631-5.847 0.631-3.901 0-7.462-0.668-10.58-1.988-3.121-1.319-5.81-3.113-7.996-5.329s-3.887-4.798-5.059-7.672c-1.173-2.876-1.767-5.915-1.767-9.031 0-2.697 0.363-4.989 1.078-6.816 0.718-1.833 1.667-3.395 2.823-4.643 1.158-1.255 2.502-2.285 3.996-3.061 1.525-0.798 3.101-1.494 4.682-2.073 1.631-0.601 3.221-1.155 4.724-1.649 1.563-0.517 2.975-1.118 4.197-1.786 1.256-0.69 2.283-1.543 3.054-2.54 0.8-1.032 1.207-2.356 1.207-3.933 0-3.302-0.868-5.841-2.577-7.55-1.713-1.712-4.153-2.581-7.258-2.581-2.095 0-3.894 0.339-5.347 1.006-1.419 0.651-2.683 1.38-3.757 2.168l-2.888 2.124c-1.377 1.015-2.835 1.139-4.279 0.383-0.627-0.331-1.141-0.754-1.525-1.257l-5.504-7.21c1.077-1.268 2.377-2.441 3.873-3.486 1.609-1.128 3.383-2.116 5.274-2.942 1.888-0.822 3.886-1.469 5.937-1.921 2.047-0.452 4.114-0.682 6.143-0.682 4.092 0 7.827 0.693 11.1 2.062 3.267 1.368 6.081 3.244 8.362 5.575 2.28 2.327 4.056 5.089 5.282 8.211 1.224 3.123 1.843 6.506 1.843 10.052 0 2.463-0.363 4.595-1.077 6.339-0.718 1.752-1.681 3.266-2.868 4.497zM241.356 260.541l-3.258-26.69c-0.612-2.036-1.382-3.846-2.303-5.454-0.921-1.606-1.931-2.988-3.001-4.111-1.083-1.135-2.227-2.026-3.399-2.651-1.196-0.642-2.356-0.97-3.448-0.97-1.351 0-2.389 0.401-3.081 1.19-0.693 0.786-1.029 2.080-1.029 3.957 0 0.405 0.018 0.833 0.050 1.29 0.031 0.453 0.084 0.947 0.151 1.482l3.788 31.957h-14.377l-3.802-32.067c-0.064-0.646-0.123-1.283-0.17-1.905-0.048-0.601-0.072-1.203-0.072-1.793 0-2.477 0.315-4.694 0.939-6.592 0.619-1.89 1.502-3.498 2.623-4.776 1.119-1.278 2.459-2.26 3.984-2.918 1.531-0.664 3.238-1 5.072-1 2.97 0 5.87 0.731 8.62 2.17 2.763 1.446 5.387 3.714 7.801 6.74l0.816 1.024v-4.567c0-3.079 1.625-4.577 4.97-4.577h7.391l6.109 50.261-14.376 0.001zM306.072 251.026c-0.688 2.38-1.656 4.362-2.879 5.888-1.212 1.51-2.673 2.634-4.339 3.344-1.675 0.711-3.558 1.071-5.594 1.071-3.155 0-6.161-0.888-8.935-2.643-2.806-1.776-5.387-4.244-7.671-7.336l-0.825-1.119v6.029c0 1.528-0.394 2.629-1.17 3.275-0.8 0.666-1.947 1.004-3.409 1.004h-7.491l-8.899-71.105h13.984l3.252 24.315 0.644-0.575c1.243-1.113 2.694-2.015 4.312-2.68 1.616-0.666 3.485-1.005 5.55-1.005 3.192 0 6.294 0.885 9.217 2.627 2.942 1.753 5.579 4.163 7.837 7.161 2.263 3.008 4.091 6.542 5.435 10.507 1.342 3.965 2.022 8.208 2.022 12.611-0.001 3.328-0.351 6.233-1.043 8.632zM291.902 233.203c-0.617-2.5-1.487-4.754-2.586-6.702-1.113-1.971-2.455-3.583-3.991-4.798-1.573-1.245-3.32-1.877-5.192-1.877-1.087 0-2.249 0.172-3.456 0.51-1.225 0.346-2.349 0.921-3.342 1.712l-0.202 0.159 1.562 12.592c0.64 2.218 1.439 4.269 2.389 6.169 0.949 1.898 1.976 3.573 3.055 4.983 1.084 1.422 2.24 2.567 3.432 3.404 1.227 0.858 2.428 1.293 3.571 1.293 1.735 0 3.144-0.819 4.185-2.432 0.998-1.548 1.505-4.021 1.505-7.353-0-2.595-0.312-5.173-0.927-7.661zM377.911 257.497c-1.053 1.257-2.34 2.219-3.827 2.86-1.499 0.646-3.188 0.973-5.026 0.973-3.285 0-6.272-0.87-8.876-2.588-2.63-1.731-5.089-4.488-7.313-8.195l-0.659-1.099-0.187 1.268c-0.51 3.468-1.695 6.138-3.521 7.934-1.809 1.778-4.125 2.679-6.884 2.679-2.543 0-5.004-0.684-7.32-2.035-2.34-1.362-4.602-3.488-6.723-6.32l-0.823-1.1v4.384c0 1.528-0.394 2.629-1.17 3.276-0.8 0.666-1.947 1.003-3.408 1.003h-7.49l-6.107-50.261h14.079l3.308 27.383c0.543 1.924 1.166 3.631 1.865 5.147 0.706 1.527 1.497 2.845 2.353 3.915 0.87 1.094 1.817 1.946 2.814 2.53 1.022 0.597 2.098 0.901 3.197 0.901 1.192 0 2.108-0.39 2.724-1.16 0.599-0.75 0.891-1.99 0.891-3.79 0-0.437-0.019-0.893-0.053-1.363-0.034-0.469-0.083-0.986-0.151-1.551l-3.788-32.012h14.178l3.262 27.63c0.545 1.896 1.166 3.571 1.865 5.052 0.705 1.49 1.497 2.784 2.353 3.843 0.87 1.076 1.808 1.909 2.791 2.478 1.002 0.581 2.067 0.875 3.166 0.875 1.195 0 2.113-0.39 2.728-1.16 0.598-0.749 0.888-1.988 0.888-3.79 0-0.437-0.017-0.893-0.051-1.363-0.034-0.469-0.084-0.984-0.149-1.55l-3.789-32.012h14.179l3.803 32.12c0.062 0.677 0.122 1.356 0.169 2.028 0.049 0.644 0.073 1.29 0.073 1.917 0 2.446-0.3 4.623-0.89 6.471-0.589 1.844-1.424 3.418-2.485 4.683zM394.379 269.097c0.768-0.767 1.661-1.383 2.654-1.832 1.976-0.899 4.245-0.895 6.315 0.003 1.045 0.452 1.988 1.070 2.805 1.839 0.811 0.762 1.477 1.663 1.976 2.679 0.493 1.003 0.744 2.090 0.744 3.229 0 1.176-0.245 2.288-0.724 3.307-0.488 1.038-1.137 1.956-1.928 2.731-0.799 0.781-1.722 1.397-2.745 1.829-1.024 0.434-2.109 0.655-3.228 0.655-1.081 0-2.131-0.226-3.117-0.674-0.998-0.453-1.909-1.079-2.707-1.858-0.793-0.78-1.435-1.696-1.902-2.726-0.464-1.020-0.7-2.118-0.7-3.264s0.236-2.236 0.699-3.24c0.471-1.015 1.094-1.917 1.858-2.678zM399.942 210.279l6.010 50.262h-14.18l-6.008-50.262zM443.55 223.969c-0.411 0.201-0.833 0.303-1.254 0.303-0.789 0-1.465-0.197-2.005-0.584-0.625-0.445-1.296-0.928-2.021-1.454-0.737-0.536-1.618-1.043-2.618-1.502-1.026-0.469-2.375-0.706-4.015-0.706-1.118 0-2.18 0.229-3.154 0.683-0.979 0.457-1.848 1.137-2.578 2.022-0.723 0.88-1.3 1.994-1.714 3.314-0.405 1.31-0.61 2.857-0.61 4.605 0 3.091 0.345 5.889 1.026 8.317 0.687 2.44 1.611 4.527 2.754 6.203 1.151 1.692 2.486 3.007 3.966 3.909 1.496 0.911 3.062 1.375 4.654 1.375 1.267 0 2.314-0.15 3.12-0.446 0.784-0.292 1.457-0.605 2-0.927 0.53-0.315 1.017-0.612 1.464-0.893 0.683-0.429 1.844-0.518 2.704 0.005 0.426 0.258 0.813 0.558 1.15 0.893l4.661 5.367c-1.834 2.285-3.914 3.99-6.19 5.072-2.377 1.135-5.274 1.709-8.613 1.709-3.925 0-7.574-0.822-10.851-2.444-3.288-1.628-6.171-3.857-8.567-6.627-2.405-2.773-4.302-6.046-5.641-9.728-1.339-3.678-2.019-7.625-2.019-11.736 0-3.259 0.457-6.231 1.358-8.832 0.896-2.593 2.185-4.832 3.829-6.654 1.644-1.817 3.658-3.239 5.983-4.224 2.332-0.991 4.993-1.497 7.913-1.497 2.165 0 4.171 0.173 5.961 0.512 1.773 0.334 3.47 0.878 5.047 1.617 1.57 0.738 3.116 1.73 4.592 2.948 1.404 1.159 2.889 2.588 4.418 4.249l-3.685 4.331c-0.296 0.354-0.64 0.622-1.062 0.823zM487.923 224.446c-0.399 0.214-0.796 0.317-1.216 0.317-0.701 0-1.31-0.104-1.858-0.316-0.563-0.219-1.106-0.502-1.613-0.842l-1.705-1.135c-0.613-0.409-1.303-0.8-2.050-1.165-0.767-0.375-1.672-0.687-2.687-0.923-1.017-0.236-2.231-0.354-3.608-0.354-2.982 0-5.279 0.863-6.83 2.567-1.533 1.688-2.344 4.363-2.413 7.948l-0.009 0.422 0.42 0.042c5.815 0.587 10.696 1.414 14.508 2.453 3.805 1.036 6.866 2.304 9.096 3.766 2.204 1.442 3.769 3.114 4.652 4.971 0.885 1.867 1.336 3.959 1.336 6.22 0 1.5-0.366 3.025-1.089 4.536-0.728 1.517-1.803 2.904-3.196 4.125-1.401 1.224-3.155 2.233-5.212 2.998-2.057 0.767-4.45 1.156-7.118 1.156-2.699 0-5.285-0.383-7.685-1.138-2.402-0.76-4.639-1.828-6.642-3.177-2.010-1.349-3.846-2.989-5.459-4.876-1.611-1.886-2.995-3.978-4.111-6.225-1.112-2.242-1.979-4.673-2.58-7.228-0.596-2.549-0.899-5.206-0.899-7.892 0-3.185 0.497-6.119 1.474-8.72 0.976-2.593 2.371-4.841 4.147-6.678 1.769-1.835 3.916-3.279 6.382-4.289 2.473-1.009 5.221-1.521 8.168-1.521 2.396 0 4.634 0.199 6.652 0.587 2.007 0.385 3.93 0.995 5.716 1.816 1.791 0.823 3.555 1.885 5.248 3.157 1.592 1.197 3.257 2.633 4.953 4.274l-3.67 4.267c-0.311 0.342-0.685 0.634-1.1 0.856zM465.045 240.145c0.971 3.579 2.452 6.442 4.401 8.511 1.991 2.107 4.344 3.177 6.998 3.177 1.58 0 2.758-0.435 3.505-1.29 0.729-0.84 1.098-1.755 1.098-2.72 0-0.923-0.205-1.799-0.613-2.601-0.42-0.819-1.217-1.578-2.375-2.261-1.122-0.662-2.704-1.275-4.7-1.822-1.991-0.547-4.615-1.076-7.8-1.566l-0.697-0.107 0.185 0.68zM99.807 245.69v5.055c0 8.837-4.575 16.509-11.286 20.37v-0.921c0-3.837-1.607-7.264-4.129-9.53-2.773 1.056-5.752 1.638-8.855 1.646v0.002c-0.010 0-0.022 0-0.031 0v0c-0.005 0-0.010 0-0.016 0s-0.011 0-0.016 0v0c-0.012 0-0.023 0-0.031 0v-0.002c-3.106-0.008-6.082-0.589-8.856-1.646-2.522 2.264-4.13 5.692-4.13 9.53v0.921c-6.712-3.861-11.285-11.533-11.285-20.37v-5.055c-3.976-4.686-6.408-10.734-5.537-17.441 0.395-3.037 2.8-7.559 9.474-9.66 6.491-8.337 12.211 1.428 20.333 1.425v0c0.008 0 0.019 0 0.031 0v0c0.004 0 0.010 0 0.016 0s0.010 0 0.015 0v0c0.010 0 0.022 0 0.031 0v0c8.121 0.003 13.843-9.762 20.332-1.425 6.674 2.1 9.081 6.624 9.474 9.661 0.872 6.708-1.561 12.755-5.535 17.441zM63.197 233.722c-6.486 2.033-6.364 6.346-5.784 9.52l15.716-10.579c0 0.001-4.533-0.633-9.931 1.060zM87.784 233.722c-5.398-1.694-9.933-1.059-9.933-1.059l15.719 10.58c0.578-3.175 0.7-7.488-5.786-9.522zM75.49 188.996c-29.041 0-52.667 23.626-52.667 52.666s23.626 52.667 52.667 52.667 52.666-23.626 52.666-52.667c0-29.041-23.626-52.666-52.666-52.666zM75.49 286.805c-24.892 0-45.142-20.25-45.142-45.142s20.251-45.142 45.142-45.142 45.142 20.251 45.142 45.142c0 24.892-20.25 45.142-45.142 45.142z" />
<glyph unicode="&#xe603;" d="M55.678 423.435h169.363v-169.363h-169.363v169.363zM55.678 193.928h169.363v-169.365h-169.363v169.365zM285.185 193.928h169.363v-169.365h-169.363v169.365zM285.185 423.435v-169.364h169.363v169.364h-169.363zM429.773 279.171h-119.454v119.713h119.454v-119.713z" />
<glyph unicode="&#xe604;" d="M165.55 268.547l88.969-88.969 88.969 88.969h-44.483v66.726h-88.969v-66.726zM410.214 424.243h-311.607c-24.566 0-44.037-19.918-44.037-44.484l-0.229-311.389c0-24.57 19.7-44.484 44.267-44.484h311.607c24.565 0 44.483 19.915 44.483 44.484v311.389c0 24.566-19.918 44.484-44.484 44.484zM410.214 157.339h-88.969c0-36.85-29.865-66.726-66.726-66.726-36.846 0-66.726 29.877-66.726 66.726h-89.186v222.421h311.607v-222.421z" />
<glyph unicode="&#xe605;" d="M256.007 105.313l192.595 195.635c0 0 16.506 19.312-0.55 35.763-17.796 17.164-35.761-0.629-35.761-0.629l-156.676-158.519-157.273 155.375c0 0-19.313 16.506-35.763-0.551-17.166-17.796 0.628-35.761 0.628-35.761l192.8-191.313z" />
<glyph unicode="&#xe606;" d="M136.010 224.182l195.635-192.595c0 0 19.312-16.506 35.763 0.55 17.164 17.796-0.629 35.761-0.629 35.761l-158.519 156.677 155.375 157.273c0 0 16.507 19.313-0.551 35.763-17.795 17.166-35.761-0.628-35.761-0.628l-191.313-192.8z" />
<glyph unicode="&#xe607;" d="M375.389 225.309l-195.636 192.595c0 0-19.312 16.506-35.763-0.55-17.164-17.796 0.629-35.761 0.629-35.761l158.519-156.677-155.374-157.272c0 0-16.506-19.312 0.551-35.762 17.795-17.166 35.761 0.628 35.761 0.628l191.313 192.8z" />
<glyph unicode="&#xe608;" d="M255.392 344.179l-192.595-195.635c0 0-16.506-19.312 0.55-35.763 17.796-17.164 35.761 0.629 35.761 0.629l156.677 158.519 157.273-155.375c0 0 19.312-16.507 35.762 0.551 17.166 17.795-0.628 35.761-0.628 35.761l-192.8 191.314z" />
<glyph unicode="&#xe609;" d="M231.369 358.77l0.052 53.013c0.006 9.804-11.726 14.947-18.827 8.255l-154.563-124.139c-4.457-4.208-4.63-11.259-0.392-15.762l154.314-139.224c6.929-7.353 19.198-2.563 19.212 7.498l0.054 56.401c79.868-17.699 153.873-71.023 153.873-134.203 0-17.603-4.015-31.858-12.192-47.38 49.983 34.579 81.611 85.951 81.611 146.679 0 102.645-108.283 186.087-223.142 188.86z" />
<glyph unicode="&#xe60a;" d="M277.712 358.77l-0.052 53.013c-0.007 9.804 11.726 14.947 18.827 8.255l154.563-124.139c4.457-4.208 4.63-11.259 0.392-15.762l-154.315-139.224c-6.93-7.353-19.197-2.563-19.212 7.498l-0.053 56.401c-79.869-17.699-153.874-71.023-153.874-134.203 0-17.603 4.015-31.859 12.192-47.38-49.983 34.579-81.611 85.951-81.611 146.679 0 102.645 108.282 186.087 223.142 188.86z" />
<glyph unicode="&#xe60b;" d="M230.761 91.329h133.86v133.859h-133.86v-133.859zM275.382 180.568h44.62v-44.618h-44.62v44.618zM401.025 403.668h-14.095v44.618h-44.62v-44.619h-175.281v44.619h-44.62v-44.619h-14.095c-29.179 0-52.835-23.656-52.835-52.835v-295.91c0-29.179 23.655-52.834 52.835-52.834h292.712c29.179 0 52.834 23.654 52.834 52.834v295.911c0 29.178-23.654 52.834-52.834 52.834zM409.24 66.522c0-10.943-8.87-19.814-19.813-19.814h-269.515c-10.942 0-19.814 8.87-19.814 19.814v205.783c0 10.942 8.87 19.812 19.814 19.812h269.515c10.942 0 19.813-8.87 19.813-19.812v-205.783z" />
<glyph unicode="&#xe60c;" d="M247.114 156.846l-93.927 121.134c-5.567 7.183-0.452 17.627 8.638 17.627h187.852c9.087 0 14.207-10.446 8.639-17.627l-93.928-121.134c-4.377-5.642-12.9-5.642-17.274 0z" />
<glyph unicode="&#xe60d;" d="M178.022 232.746l121.133 93.927c7.183 5.568 17.627 0.452 17.627-8.638v-187.851c0-9.087-10.447-14.207-17.627-8.639l-121.133 93.928c-5.643 4.377-5.643 12.9 0 17.274z" />
<glyph unicode="&#xe60e;" d="M322.745 215.474l-121.133-93.927c-7.183-5.569-17.627-0.452-17.627 8.638v187.851c0 9.087 10.447 14.207 17.627 8.639l121.133-93.928c5.642-4.377 5.642-12.901-0-17.274z" />
<glyph unicode="&#xe60f;" d="M264.118 301.839l93.928-121.133c5.569-7.183 0.452-17.627-8.638-17.627h-187.852c-9.087 0-14.207 10.447-8.638 17.627l93.928 121.134c4.377 5.642 12.901 5.642 17.274 0z" />
<glyph unicode="&#xe610;" d="M255.871 443.605c-121.361 0-219.486-98.321-219.486-219.605s98.125-219.605 219.486-219.605c121.362 0 219.722 98.32 219.722 219.605s-98.36 219.605-219.722 219.605zM255.989 48.317c-97.063 0-175.683 78.663-175.683 175.684 0 97.023 78.62 175.682 175.683 175.682s175.684-78.659 175.684-175.682c0-97.020-78.62-175.684-175.685-175.684zM266.969 355.763h-32.94v-153.724l116.457-69.874 16.469 27.45-99.986 59.989z" />
<glyph unicode="&#xe611;" d="M36.336 207.523l146.795-146.797 293.592 293.591-34.596 34.594-258.995-258.993-112.197 112.198z" />
<glyph unicode="&#xe612;" d="M296.389 222.267c0-21.63-17.534-39.164-39.164-39.164s-39.165 17.534-39.165 39.164c0 21.63 17.535 39.165 39.165 39.165s39.164-17.535 39.164-39.165zM377.123 292.275c0.384-0.524-0.656-1.368-0.656-1.368l-52.974-43.204-43.83-38.986-23.257 39.751 55.463 19.103 63.671 24.528c0-0 1.286 0.584 1.583 0.178zM255.99 443.375c-121.159 0-219.376-98.217-219.376-219.376s98.217-219.375 219.376-219.375c121.157 0 219.375 98.217 219.375 219.375s-98.217 219.376-219.375 219.376zM257.449 58.68c-90.885 0-164.562 73.676-164.562 164.563s73.677 164.563 164.562 164.563 164.563-73.677 164.563-164.563c0-90.887-73.676-164.563-164.563-164.563z" />
<glyph unicode="&#xe613;" d="M215.094 398.514v-140.584h-61.983l101.642-108.349 101.642 108.349h-60.56v140.584c0 10.782-8.74 19.524-19.524 19.524h-41.693c-10.782 0-19.524-8.742-19.524-19.524zM464.356 44.473l-417.060-0.272v214.767c0 0 3.526 21.965 25.552 21.965 23.531 0 25.971-24.406 25.971-24.406v-159.99l313.744-0.271v157.279c0 0-0.271 27.388 25.995 27.388 22.274 0 25.799-22.507 25.799-22.507v-213.953h0z" />
<glyph unicode="&#xe614;" d="M61.425 309.939c15.425-16.509 32.729-31.266 48.488-46.056 34.673 34.667 70.676 70.682 105.842 105.849-14.661 15.316-29.175 32.12-45.466 46.967-12.209 11.132-29.751 9.22-42.732-3.317-21.386-20.661-42.29-41.841-62.963-63.213-10.343-10.702-12.671-30.067-3.169-40.231zM129.592 240.207c60.966-60.987 121.96-121.948 183.036-182.82 1.526-1.527 27.43-27.397 28.957-28.918 2.368-2.354 6.852-3.599 10.362-3.639 31.42-0.276 62.841-0.154 94.262-0.154 2.452 0 4.889 0 8.175 0 0 3.837 0 6.839 0 9.849 0 30.298-0.173 60.601 0.147 90.893 0.058 6.14-1.783 10.343-6.108 14.649-0.584 0.57-25.517 25.498-26.094 26.075-60.217 60.064-120.351 120.21-180.509 180.336-1.931 1.931-4.017 3.715-5.448 5.017-36.399-36.386-72.394-72.395-108.787-108.794 0.322-0.404 1.065-1.546 2.009-2.496z" />
<glyph unicode="&#xe615;" d="M470.793 314.13c-10.983-11.754-23.303-22.262-34.526-32.793-24.685 24.686-50.322 50.327-75.362 75.369 10.44 10.906 20.774 22.869 32.372 33.44 8.693 7.925 21.185 6.565 30.428-2.361 15.228-14.712 30.112-29.791 44.83-45.012 7.365-7.616 9.023-21.405 2.257-28.644zM423.684 266.259c-25.909 25.919-51.544 51.554-77.462 77.468-1.017-0.929-2.502-2.196-3.877-3.574-42.834-42.814-85.653-85.641-128.537-128.407-0.407-0.41-18.165-18.157-18.579-18.566-3.077-3.067-4.392-6.059-4.347-10.433 0.227-21.568 0.106-43.147 0.106-64.721 0-2.143 0-4.282 0-7.012 2.335 0 4.073 0 5.819 0 22.372 0 44.744-0.086 67.119 0.112 2.5 0.025 5.694 0.911 7.38 2.589 1.089 1.087 19.532 19.507 20.62 20.594 43.491 43.341 86.92 86.746 130.33 130.175 0.675 0.674 1.206 1.489 1.43 1.776zM365.541 158.026v-62.88c0-8.726-7.074-15.801-15.8-15.801h-257.616c-8.725 0-15.801 7.074-15.801 15.801v257.615c0 8.727 7.075 15.8 15.801 15.8h231.28c1.276 0 2.531-0.080 3.777-0.192 12.812 13.18 25.631 26.351 38.44 39.532-0.409 0.97-0.445 1.053-0.856 2.022h-287.671c-23.27 0-42.135-18.864-42.135-42.135v-287.673c0-23.27 18.864-42.135 42.135-42.135h287.671c23.271 0 42.136 18.864 42.136 42.135v120.438c-13.791-14.173-27.566-28.364-41.363-42.529z" />
<glyph unicode="&#xe616;" d="M208.339 252.647l171.096 171.098h-273.515c-27.528 0-49.837-22.315-49.837-49.838v-298.454c0-27.529 22.315-49.838 49.837-49.838h298.453c27.529 0 49.838 22.315 49.838 49.839v253.496l-161.091-161.091-84.781 84.788zM157.337 116.87l28.107 112.882 84.787-84.781-112.894-28.101z" />
<glyph unicode="&#xe617;" d="M81.333 181.977h145.038v-63.947l111.782 104.862-111.782 104.863v-62.478h-145.038c-11.124 0-20.144-9.018-20.144-20.142v-43.014c0-11.125 9.019-20.142 20.144-20.142zM446.591 439.137l0.281-430.274h-221.571c0 0-22.661 3.637-22.661 26.361 0 24.276 25.179 26.793 25.179 26.793h165.059l0.28 323.685h-162.262c0 0-28.256-0.281-28.256 26.818 0 22.981 23.22 26.617 23.22 26.617l220.732-0z" />
<glyph unicode="&#xe618;" d="M409.707 152.466l-69.522 40.394v58.245l70.693 42.072c8.777-6.064 20.015-8.451 31.152-5.552 20.36 5.295 32.59 26.082 27.293 46.463-5.297 20.338-26.087 32.567-46.445 27.276-18.8-4.888-30.479-23.017-28.012-41.804l-67.118-39.396-58.050 33.514v78.169c11.27 4.022 20.497 13.212 23.928 25.636 5.596 20.276-6.317 41.257-26.594 46.858-20.287 5.6-41.258-6.313-46.851-26.582-4.978-17.995 3.883-36.49 20.102-44.348l-0.405-80.409-55.763-32.193-66.999 39.029c2.329 11.916-1.009 24.739-10.174 34.027-14.76 14.984-38.879 15.171-53.866 0.418-14.989-14.77-15.169-38.896-0.401-53.875 12.678-12.882 32.254-14.747 47.035-5.663l70.843-41.289v-61.522l-67.184-39.827c-9.16 8.048-21.984 11.61-34.675 8.306-20.363-5.291-32.568-26.091-27.285-46.462 5.285-20.37 26.085-32.563 46.456-27.277 17.823 4.641 29.402 21.17 28.441 38.885l69.86 40.462 54.466-31.437v-78.526l0.060-0.014c-11.108-4.098-20.174-13.216-23.569-25.507-5.601-20.276 6.294-41.239 26.582-46.841 20.275-5.617 41.248 6.289 46.852 26.565 5.031 18.274-4.186 37.003-20.861 44.655v79.428l56.118 32.397 67.585-40.075c-1.765-11.481 1.608-23.598 10.378-32.495 14.769-15 38.889-15.181 53.868-0.413 14.986 14.747 15.173 38.873 0.407 53.858-13.067 13.263-33.438 14.887-48.346 4.848z" />
<glyph unicode="&#xe619;" d="M254.968 367.087c-93.96 0-179.276-53.986-242.327-141.902 63.051-87.916 148.359-141.901 242.327-141.901 93.96 0 179.268 53.986 242.335 141.902-63.058 87.916-148.375 141.901-242.335 141.901zM254.968 104.515c-66.644 0-120.653 54.017-120.653 120.669 0 66.636 54.017 120.67 120.654 120.67s120.678-54.034 120.678-120.67c0.008-66.653-54.032-120.669-120.678-120.669zM287.473 224.345c-17.543 0-31.742 14.231-31.742 31.783 0 7.912 2.862 15.132 7.679 20.695-2.763 0.443-5.571 0.685-8.441 0.685-28.903 0-52.305-23.417-52.305-52.322 0-28.903 23.403-52.322 52.305-52.322s52.328 23.418 52.328 52.322c0 2-0.11 3.945-0.342 5.851-5.384-4.187-12.145-6.691-19.481-6.691z" />
<glyph unicode="&#xe61a;" d="M347.76 293.538h-62.757v41.159c0 15.452 10.237 19.063 17.456 19.063 7.198 0 44.279 0 44.279 0v67.946l-60.988 0.249c-67.714 0-83.121-50.681-83.121-83.122v-45.3h-39.155v-70.019h39.155v-198.155h82.374v198.161h55.564l7.193 70.019z" />
<glyph unicode="&#xe61b;" d="M254.849 424.058c-82.936 0-150.196-67.24-150.196-150.189 0-75.294 67.112-174.557 111.613-232.107 19.506-25.22 57.665-25.22 77.172 0 44.502 57.544 111.606 156.808 111.606 232.107-0.007 82.949-67.272 150.189-150.196 150.189zM253.845 202.221c-39.232 0-71.035 31.803-71.035 71.034s31.803 71.034 71.034 71.034c39.231 0 71.034-31.803 71.034-71.034s-31.805-71.034-71.034-71.034z" />
<glyph unicode="&#xe61c;" d="M434.563 260.85h-47.142v42.862h0.18c-0.986 71.601-59.263 129.36-131.104 129.36s-130.119-57.759-131.117-129.36v-42.863h-48.714c-11.035 0-19.98-8.946-19.98-19.981v-202.2c0-11.035 8.945-19.981 19.98-19.981h357.904c11.035 0 19.981 8.945 19.981 19.981v202.2c-0.007 11.036-8.951 19.981-19.987 19.981zM277.603 132.244c-2.231-3.271-3.468-7.156-3.468-11.199v-33.957c0.040-0.486 0.147-0.959 0.147-1.458 0-10.589-8.819-19.115-19.509-18.642-10.19 0.452-17.817 9.664-17.817 19.861v35.848c0 3.929-1.111 7.781-3.245 10.994-9.376 7.009-15.446 18.199-15.446 30.805 0 21.228 17.209 38.438 38.438 38.438s38.438-17.209 38.438-38.438c0-13.518-6.985-25.399-17.538-32.252zM342.142 260.85h-172.375v42.862h-0.1c0.525 47.195 38.902 85.305 86.224 85.305s85.7-38.111 86.224-85.305h0.027v-42.863h-0z" />
<glyph unicode="&#xe61d;" d="M285.7 212.154l73.087 73.087 56.354-56.358 41.635 41.619-56.366 56.362 45.416 45.416-41.626 41.627-160.125-160.125c-49.175 30.379-114.492 24.276-157.139-18.371-49.815-49.814-49.815-130.577-0.001-180.391s130.577-49.814 180.391 0c42.647 42.648 48.745 107.96 18.373 157.134zM127.933 96.017c-27.173 27.173-27.169 71.226 0.001 98.396 27.169 27.169 71.222 27.173 98.394 0s27.169-71.226 0-98.395c-27.169-27.169-71.222-27.173-98.395-0z" />
<glyph unicode="&#xe61e;" d="M442.75 377.288h-370.437c-28.258 0-51.166-22.907-51.166-51.166v-211.825c0-28.258 22.907-51.166 51.166-51.166h370.437c28.258 0 51.166 22.907 51.166 51.166v211.825c0 28.257-22.907 51.166-51.166 51.166zM276.356 137.882h-50.032v96.115l-45.124-55.659h-3.95l-45.245 55.659v-96.116h-48.596v165.897h45.364l50.99-62.241 51.23 62.241h45.364v-165.897zM375.713 136.643l-75.894 75.896h50.476v91.082h50.836v-91.082h50.477l-75.894-75.895z" />
<glyph unicode="&#xe61f;" d="M381.863 424.307h-256.171c-38.998 0-70.61-31.721-70.61-70.853v-257.458c0-39.132 31.612-70.853 70.61-70.853h256.164c38.998 0 70.61 31.721 70.61 70.853v257.458c0.006 39.133-31.605 70.853-70.604 70.853zM174.643 351.777c25.883 0.199 46.755-20.673 46.685-46.691-0.071-25.685-20.353-46.025-46.243-46.378-25.635-0.352-46.716 20.738-46.704 46.691 0.019 25.698 20.45 46.173 46.263 46.378zM393.602 80.7h-263.365c-10.439 0-18.888 8.468-18.888 18.907-0.007 12.186 0.006 24.245 0.121 36.315 18.216 18.472 36.533 36.784 55.677 55.985 12.27-12.808 23.97-25.019 35.74-37.308 37.782 37.955 74.404 74.757 111.393 111.918 2.995-2.458 4.979-3.815 6.65-5.479 27.579-27.624 55.172-55.236 82.603-83.001 2.202-2.24 4.654-5.575 4.685-8.423 0.288-24.558 0.237-49.116 0.218-74.060-0.014-8.199-6.651-14.856-14.837-14.856z" />
<glyph unicode="&#xe620;" d="M428.465 394.58h-347.003c-13.692 0-24.785-10.745-24.785-23.999v-229.333c0-13.254 11.094-23.998 24.785-23.998h87.806l-3.488-68.505c-0.445-8.685 11.018-12.651 16.364-5.659 0 0 54.688 72.507 54.758 74.171h191.569c13.691 0 24.784 10.745 24.784 23.998v229.333c-0.005 13.248-11.107 23.994-24.791 23.994z" />
<glyph unicode="&#xe621;" d="M80.806 250.11h348.084c0 0 24.607-0.392 24.607-26.052s-27.423-24.484-27.423-24.484l-345.268-0.009c0 0-25.288 0.538-25.328 25.272-0.038 23.706 25.328 25.273 25.328 25.273z" />
<glyph unicode="&#xe622;" d="M343.18 290.57c-6.27 22.059-18.598 40.631-35.758 55.203-26.624 22.604-57.69 35.611-92.897 38.202-39.58 2.917-76.435-4.885-108.79-28.502-62.465-45.599-68.056-127.054-9.148-177.038 5.436-4.615 13.936-8.534 15.366-14.194 1.538-6.103-3.538-13.897-5.795-20.937-2.154-6.68-4.391-13.334-7.033-21.322 16.097 8.065 30.553 15.507 45.228 22.482 2.955 1.41 6.936 1.942 10.142 1.32 19.116-3.738 38.195-7.244 58.208-5.007-10.545 40.285-1.609 75.916 26.777 105.79 28.239 29.72 64.101 40.42 105.174 37.336-0.589 2.686-0.916 4.713-1.474 6.667zM412.454 99.454c5.641 4.5 11.154 9.283 16.168 14.469 36.618 37.899 35.836 86.096-2.205 122.579-20.014 19.219-44.195 29.854-71.864 32.092-37.707 3.032-71.632-6.109-98.858-33.432-22.034-22.104-31.015-49.163-24.534-80.031 5.373-25.534 20.431-44.913 42.202-58.991 32.45-20.995 67.549-23.355 104.25-14.635 3 0.717 6.917 0.128 9.7-1.25 10.091-5.020 19.886-10.642 30.624-16.495-0.378 2.283-0.456 3.596-0.827 4.828-2.283 7.673-4.424 15.392-7.020 22.963-1.205 3.505-0.596 5.55 2.365 7.904z" />
<glyph unicode="&#xe623;" d="M283.495 454.388h-169.959c-14.76 0-28.85-5.317-42.466-18.624s-15.279-35.265-15.279-35.265 0-338.352 0-347.375c0-9.022 0.624-25.715 17.589-42.731s40.156-16.253 40.156-16.253 269.2 0 280.507 0c11.309 0 21.926 1.691 40.002 16.103 18.073 14.411 17.745 43.935 17.745 43.935v231.923l-168.295 168.288zM393.976 51.997h-280.493v344.78h146.055l134.438-134.551v-210.229h-0z" />
<glyph unicode="&#xe624;" d="M55.478 388.1v-327.177c0-37.227 30.182-67.408 67.41-67.408h262.688c37.228 0 67.409 30.182 67.409 67.408v223.162c0 1.596-0.637 3.134-1.767 4.265l-165.399 165.392c-1.132 1.131-2.67 1.767-4.265 1.767h-158.665c-37.227 0.001-67.409-30.182-67.409-67.409z" />
<glyph unicode="&#xe625;" d="M423.894 394.555c0 45.409-44.767 49.48-44.767 49.48h-240.545c0 0-3.427 0.429-8.355 0-4.925-0.429-23.99-3.427-35.343-19.707s-9.639-35.343-9.639-35.343 0-226.624 0-247.401c0-20.777 11.781-32.344 11.781-32.344s79.039-77.541 91.678-89.322c12.638-11.781 29.988-14.567 29.988-14.567s108.814 0 155.51 0c46.695 0 49.908 47.767 49.908 47.767s-0.216 296.025-0.216 341.435zM369.060 60.333c-0.856 0.428-132.945 0-132.945 0s-0.286 6.284-0.286 12.423c0 6.14-0.143 60.118-0.143 60.118s-0.571 13.567-11.567 23.276c-10.995 9.711-22.419 8.569-22.419 8.569l-61.404 0.285v224.196l228.765-0.142c-0.002-0.001 0.855-329.154-0.002-328.726z" />
<glyph unicode="&#xe626;" d="M430.178 249.871h-149.65l-0.004 146.82c0 0 1.18 27.516-24.569 27.516s-26.141-24.692-26.141-24.692v-149.644h-148.921c0 0-25.453-1.573-25.416-25.359 0.040-24.819 25.416-25.359 25.416-25.359l148.921 0.003v-148.924c0 0 1.572-25.453 25.359-25.416 24.819 0.040 25.359 25.416 25.359 25.416l-0.003 148.927 146.823 0.003c0 0 27.516-1.18 27.516 24.569 0 25.748-24.69 26.141-24.69 26.141z" />
<glyph unicode="&#xe627;" d="M79.916 375.452h349.531c0 0 24.709-0.394 24.709-26.16s-27.536-24.586-27.536-24.586l-346.704-0.009c0 0-25.394 0.541-25.433 25.377-0.038 23.803 25.433 25.377 25.433 25.377zM79.916 247.152h349.531c0 0 24.709-0.394 24.709-26.161s-27.536-24.586-27.536-24.586l-346.704-0.009c0 0-25.394 0.541-25.433 25.377-0.038 23.804 25.433 25.378 25.433 25.378zM79.916 127.126h349.531c0 0 24.709-0.394 24.709-26.16s-27.536-24.587-27.536-24.587l-346.704-0.009c0 0-25.394 0.541-25.433 25.377-0.038 23.804 25.433 25.378 25.433 25.378z" />
<glyph unicode="&#xe628;" d="M254.394 437.061c-117.242 0-212.285-95.043-212.285-212.284 0-117.243 95.042-212.286 212.285-212.286s212.285 95.043 212.285 212.286c-0 117.24-95.043 212.285-212.285 212.285zM266.987 105.575c-1.151-2.724-2.755-5.116-4.812-7.173-2.059-2.060-4.478-3.663-7.262-4.811-2.786-1.149-5.75-1.725-8.896-1.725-3.149 0-6.114 0.576-8.898 1.725-2.786 1.149-5.174 2.752-7.171 4.811-1.998 2.057-3.572 4.448-4.721 7.173-1.153 2.723-1.725 5.719-1.725 8.987 0 3.146 0.571 6.111 1.725 8.896 1.149 2.784 2.722 5.204 4.721 7.263 1.997 2.058 4.385 3.693 7.171 4.904 2.784 1.208 5.749 1.814 8.898 1.814 3.145 0 6.111-0.606 8.896-1.814 2.784-1.212 5.204-2.847 7.262-4.904 2.058-2.058 3.661-4.479 4.812-7.263 1.149-2.786 1.726-5.75 1.726-8.896 0-3.269-0.577-6.264-1.726-8.987zM315.649 274.888c-2.723-6.658-6.173-12.5-10.351-17.521-4.175-5.025-8.745-9.381-13.707-13.073-4.966-3.695-9.594-7.173-13.89-10.441-4.298-3.266-7.988-6.536-11.075-9.804s-4.873-6.901-5.356-10.895l-3.269-27.779h-22.151l-2.178 30.141v1.997c0 5.084 1.361 9.59 4.085 13.526 2.722 3.933 6.173 7.626 10.349 11.075 4.177 3.45 8.655 6.899 13.438 10.351 4.779 3.45 9.259 7.263 13.435 11.438 4.176 4.176 7.626 8.925 10.35 14.254 2.722 5.325 4.085 11.621 4.085 18.883 0 5.203-1.029 9.923-3.087 14.162-2.060 4.236-4.842 7.834-8.352 10.803-3.512 2.965-7.658 5.235-12.438 6.808-4.783 1.572-9.896 2.361-15.343 2.361-7.385 0-13.708-0.909-18.974-2.722-5.265-1.817-9.714-3.813-13.346-5.992-3.631-2.181-6.566-4.177-8.805-5.992-2.24-1.816-4.085-2.724-5.537-2.724-3.027 0-5.389 1.389-7.082 4.177l-8.534 13.616c3.751 3.51 7.899 6.839 12.437 9.986 4.539 3.146 9.501 5.93 14.889 8.353 5.384 2.42 11.194 4.327 17.43 5.719 6.232 1.389 12.982 2.088 20.246 2.088 9.561 0 18.429-1.392 26.6-4.176 8.171-2.786 15.221-6.718 21.153-11.801 5.928-5.084 10.589-11.257 13.981-18.52 3.386-7.263 5.082-15.433 5.082-24.512 0-9.2-1.362-17.13-4.085-23.785z" />
<glyph unicode="&#xe629;" d="M148.579 385.159c6.222 5.437 13.049 10.629 20.48 15.534 7.431 4.904 15.444 9.187 24.061 12.826 8.618 3.617 17.974 6.479 28.068 8.587 10.073 2.087 20.995 3.13 32.725 3.13 15.959 0 30.486-2.174 43.603-6.546 13.094-4.349 24.33-10.585 33.685-18.685 9.356-8.078 16.587-17.841 21.735-29.313 5.125-11.451 7.7-24.254 7.7-38.434 0-13.825-2.036-25.764-6.065-35.86-4.029-10.097-9.111-18.862-15.265-26.318-6.132-7.456-12.781-13.914-19.921-19.35-7.163-5.459-13.945-10.607-20.368-15.423-6.425-4.815-11.952-9.541-16.63-14.179-4.679-4.616-7.476-9.853-8.394-15.667l-6.335-39.81h-46.468l-4.678 44.447c-0.179 0.909-0.268 1.664-0.268 2.307 0 0.644 0 1.421 0 2.33 0 7.988 2.014 14.934 6.043 20.859 4.029 5.903 9.065 11.451 15.131 16.62 6.043 5.193 12.557 10.23 19.518 15.134s13.475 10.229 19.54 15.954c6.043 5.726 11.080 12.228 15.108 19.505 4.051 7.257 6.065 15.8 6.065 25.63 0 6.546-1.253 12.405-3.716 17.575-2.484 5.193-5.909 9.654-10.319 13.381-4.409 3.707-9.67 6.569-15.803 8.588-6.155 1.997-12.803 2.995-19.944 2.995-10.453 0-19.317-1.154-26.547-3.416-7.251-2.264-13.385-4.816-18.421-7.634-5.059-2.818-9.311-5.37-12.803-7.634-3.491-2.285-6.603-3.418-9.355-3.418-6.603 0-11.371 2.73-14.304 8.189l-17.859 28.094zM203.391 63.662c0 5.637 1.053 11.007 3.156 16.087 2.104 5.082 5.059 9.454 8.819 13.092 3.738 3.639 8.192 6.546 13.34 8.721 5.125 2.197 10.631 3.284 16.496 3.284 5.685 0 11.080-1.087 16.228-3.284 5.125-2.174 9.534-5.081 13.207-8.721 3.648-3.639 6.603-8.011 8.796-13.092s3.291-10.452 3.291-16.087c0-5.815-1.096-11.228-3.291-16.221s-5.149-9.32-8.796-12.959c-3.671-3.639-8.080-6.502-13.207-8.588-5.147-2.086-10.542-3.128-16.227-3.128-5.864 0-11.371 1.043-16.496 3.128-5.149 2.086-9.602 4.949-13.34 8.588-3.76 3.639-6.715 7.966-8.819 12.959s-3.156 10.407-3.156 16.221z" />
<glyph unicode="&#xe62a;" d="M56.13 211.812c49.952 0 96.899-19.512 132.188-54.993 35.346-35.495 54.813-82.763 54.813-133.077h76.969c0 146.157-118.418 265.053-263.97 265.053v-76.983zM56.245 348.26c178.014 0 322.851-145.616 322.851-324.628h76.976c0 221.465-179.36 401.604-399.822 401.604v-76.976h-0.006zM161.693 87.887c7.151-37.586-25.221-69.952-62.815-62.788-20.856 3.991-37.908 21.075-41.836 41.945-7.062 37.548 25.227 69.798 62.757 62.699 20.856-3.952 37.914-20.998 41.893-41.856z" />
<glyph unicode="&#xe62b;" d="M347.093 422.115h-269.74c-11.798 0-21.364-9.566-21.364-21.365v-357.712c0-10.28 8.336-18.615 18.616-18.615h57.156v143.432c0 5.663 4.591 10.255 10.255 10.255h229.879c5.67 0 10.262-4.592 10.262-10.262v-143.419h52.353c10.281 0 18.616 8.336 18.616 18.616v276.531l-106.034 102.538zM316.481 269.372c0-5.663-4.592-10.255-10.262-10.255h-164.196c-5.669 0-10.261 4.591-10.261 10.255v86.148c0 5.663 4.591 10.255 10.261 10.255h164.196c5.67 0 10.262-4.591 10.262-10.255v-86.148zM173.151 135.493h168.808v-109.031h-168.808v109.031z" />
<glyph unicode="&#xe62c;" d="M345.682 168.404l-24.827 6.353c25.191 29.377 39.389 68.479 35.844 110.973-5.738 68.875-69.45 132.234-138.357 137.552-92.806 7.16-169.629-69.701-162.392-162.526 5.369-68.882 68.747-132.548 137.603-138.255 42.462-3.519 81.525 10.66 110.883 35.832l6.406-24.757 102.608-102.456c7.411-7.396 19.413-7.396 26.824 0.007l7.8 7.8c7.402 7.404 7.409 19.407 0.019 26.817l-102.411 102.66zM206.357 168.404c-57.69 0-104.457 46.755-104.457 104.452s46.767 104.464 104.457 104.464c57.697 0 104.458-46.767 104.458-104.464s-46.762-104.452-104.459-104.452z" />
<glyph unicode="&#xe62d;" d="M46.12 268.424l325.507-43.401-325.507-43.4 0.223-151.904 455.486 195.304-455.486 195.304z" />
<glyph unicode="&#xe62e;" d="M408.974 207.834l52.69 9.151-6.678 58.313-53.805-2.34c-4.543 12.716-10.787 24.661-18.466 35.582l33.897 39.432-43.691 40.502-39.315-35.083c-11.769 6.811-24.538 12.152-38.041 15.782l-0.12 51.007-60.269 3.739-6.905-51.37c-13.877-2.242-27.132-6.261-39.514-11.822l-33.918 39.082-48.641-34.772 28.921-43.989c-8.813-10.111-16.292-21.356-22.156-33.482l-52.358 8.848-14.256-57.010 51.891-15.834c0-0.096-0.007-0.194-0.007-0.286 0-13.364 1.796-26.327 5.144-38.666l-46.553-26.25 26.799-52.575 50.809 20.513c8.566-9.954 18.42-18.828 29.314-26.372l-18.48-49.68 55.319-23.539 25.478 47.676c9.066-1.594 18.399-2.43 27.939-2.43 3.97 0 7.899 0.149 11.795 0.427l18.76-49.718 57.949 16.514-11.995 52.272c11.69 6.416 22.443 14.258 32.003 23.28l46.993-26.216 33.463 48.837-43.317 32.211c4.737 12.089 7.925 24.921 9.32 38.266zM254.005 172.167c-29.060 0-52.617 22.885-52.617 51.117 0 28.233 23.557 51.118 52.617 51.118 29.061 0 52.618-22.885 52.618-51.118 0-28.231-23.557-51.117-52.618-51.117z" />
<glyph unicode="&#xe62f;" d="M242.019 54.514c0-22.137-17.946-40.084-40.084-40.084s-40.084 17.946-40.084 40.084c0 22.137 17.946 40.084 40.084 40.084s40.084-17.946 40.084-40.084zM404.030 54.514c0-22.137-17.946-40.084-40.084-40.084s-40.084 17.946-40.084 40.084c0 22.137 17.946 40.084 40.084 40.084s40.084-17.946 40.084-40.084zM435.654 317.964l-293.861-4.944-52.615 109.248c-4.695 9.748-16.395 13.839-26.144 9.144l-17.428-8.392c-9.748-4.697-13.838-16.396-9.144-26.143l123.061-255.515c0.704-1.469 1.57-2.798 2.537-4.033l9.016-18.669c2.986-6.178 9.238-10.103 16.101-10.103l189.945 21.916c6.789 0 12.994 3.844 16.013 9.928l58.546 151.734c5.889 11.887-2.758 25.827-16.027 25.827z" />
<glyph unicode="&#xe630;" d="M255.149 44.985c58.135 0 105.431 47.029 105.431 104.836s-47.296 104.835-105.431 104.835c-58.135 0-105.43-47.029-105.43-104.835-0-57.814 47.296-104.836 105.43-104.836zM216.724 114.93c0.752 0.98 1.732 1.78 2.947 2.414s2.429 0.949 3.643 0.949c1.615 0 3.19-0.565 4.726-1.685 1.529-1.12 3.221-2.358 5.071-3.707 1.85-1.348 4.005-2.586 6.458-3.707s5.479-1.685 9.060-1.685c5.258 0 9.318 1.418 12.179 4.272 2.861 2.844 4.296 7.053 4.296 12.633 0 2.587-0.651 4.709-1.952 6.38-1.301 1.669-3.010 3.071-5.118 4.223-2.108 1.154-4.522 2.171-7.241 3.057-2.72 0.894-5.494 1.858-8.323 2.885-2.828 1.034-5.602 2.257-8.322 3.668-2.719 1.411-5.133 3.244-7.242 5.517s-3.817 5.055-5.117 8.361c-1.301 3.308-1.952 7.375-1.952 12.202 0 5.573 1.051 10.933 3.167 16.082 2.108 5.14 5.125 9.702 9.060 13.659 3.925 3.965 8.698 7.123 14.302 9.483 5.603 2.358 11.905 3.534 18.903 3.534 3.582 0 7.070-0.375 10.448-1.12s6.543-1.779 9.49-3.103c2.947-1.324 5.635-2.885 8.065-4.702 2.43-1.81 4.476-3.778 6.151-5.909l-8.495-11.552c-0.98-1.379-1.983-2.382-2.994-3.017s-2.21-0.948-3.597-0.948c-1.332 0-2.656 0.431-3.99 1.293-1.332 0.862-2.82 1.81-4.466 2.845-1.646 1.034-3.543 1.982-5.682 2.846-2.139 0.862-4.655 1.292-7.538 1.292-2.657 0-4.985-0.375-6.982-1.12-1.991-0.745-3.653-1.779-4.985-3.103-1.332-1.325-2.327-2.877-2.994-4.656s-0.994-3.738-0.994-5.863c0-2.296 0.65-4.224 1.951-5.776 1.301-1.551 3.033-2.916 5.203-4.091 2.172-1.175 4.609-2.257 7.329-3.228 2.718-0.98 5.5-2.037 8.368-3.19 2.861-1.152 5.667-2.476 8.409-3.966 2.742-1.498 5.204-3.362 7.368-5.603 2.17-2.241 3.901-4.945 5.203-8.104s1.952-6.952 1.952-11.378c0-6.324-1.098-12.273-3.291-17.845-2.195-5.58-5.346-10.447-9.452-14.615-4.108-4.169-9.091-7.469-14.954-9.914-5.87-2.445-12.469-3.668-19.813-3.668-3.644 0-7.296 0.4-10.971 1.207-3.667 0.808-7.195 1.935-10.58 3.401-3.377 1.465-6.521 3.205-9.405 5.211-2.892 2.014-5.345 4.255-7.367 6.724l10.071 13.116zM454.31-18.267l-9.774 241.764 7.469 98.879-21.841 16.003h-79.1c0.007 0.479 0.015 0.948 0.015 1.427 0 33.73-9.913 65.548-27.916 89.585-18.603 24.844-43.596 38.526-70.376 38.526s-51.77-13.683-70.376-38.527c-18.002-24.036-27.916-55.854-27.916-89.585 0-0.486 0.016-0.948 0.016-1.427h-74.403l-21.843-16.003 7.469-98.879-9.757-241.764h398.33zM350.847 331.513h77.931l-1.097-11.434h-78.105c0.611 3.534 1.034 7.352 1.271 11.434zM252.798 449.634c44.051 0 79.899-49.272 79.899-109.829 0-0.493-0.009-0.948-0.017-1.426h-159.765c-0.007 0.478-0.016 0.941-0.016 1.426 0.008 60.556 35.846 109.829 79.898 109.829zM332.452 331.513c-0.273-4.443-0.784-8.221-1.505-11.434h-156.231c-0.752 3.315-1.268 7.125-1.559 11.434h159.294zM255.149 272.125c67.82 0 123.002-54.867 123.002-122.312s-55.181-122.313-123.002-122.313c-67.829 0-123.001 54.866-123.001 122.313-0.008 67.445 55.172 122.312 123.001 122.312zM154.741 331.513c0.227-4.114 0.643-7.915 1.238-11.434h-73.166l-1.097 11.434h73.025z" />
<glyph unicode="&#xe631;" d="M441.353 181.015c4.541 20.803 5.669 42.719 2.754 65.502-9.221 72.067-60.997 133.657-130.629 155.042-30.902 9.485-61.173 10.709-89.359 5.885-21.291 13.388-47.517 19.708-75.341 15.538-46.218-6.947-83.911-44.090-91.326-90.111-4.35-26.933 1.24-52.397 13.623-73.4-3.707-18.050-4.791-37.053-2.935-56.553 8.344-87.813 79.716-159.64 167.679-168.99 19.103-2.026 37.635-1.19 55.315 2.058 23.519-12.592 52.133-16.917 82.002-8.979 33.81 8.993 69.159 46.202 76.796 80.25 5.978 26.689 2.149 52.23-8.579 73.757zM353.539 131.338c-8.752-12.341-21.693-22.135-38.452-29.089-16.589-6.864-36.491-10.365-59.133-10.365-27.181 0-49.971 4.779-67.756 14.185-12.713 6.825-23.2 16.096-31.161 27.569-8.025 11.544-12.103 23.017-12.103 34.094 0 6.901 2.649 12.89 7.876 17.798 5.188 4.875 11.831 7.329 19.759 7.329 6.506 0 12.123-1.93 16.674-5.769 4.357-3.69 8.090-9.135 11.097-16.18 3.363-7.672 7-14.127 10.863-19.19 3.727-4.921 9.058-9.045 15.875-12.256 6.857-3.229 16.109-4.882 27.486-4.882 15.641 0 28.472 3.334 38.12 9.911 9.428 6.397 14 14.108 14 23.541 0 7.446-2.389 13.286-7.298 17.896-5.156 4.804-11.948 8.519-20.195 11.116-8.603 2.654-20.284 5.562-34.718 8.579-19.642 4.183-36.323 9.162-49.595 14.788-13.571 5.756-24.512 13.752-32.511 23.722-8.117 10.165-12.246 22.848-12.246 37.823 0 14.25 4.325 27.115 12.85 38.173 8.46 11.006 20.817 19.585 36.732 25.424 15.707 5.801 34.388 8.747 55.53 8.747 16.901 0 31.751-1.968 44.154-5.801 12.486-3.858 22.985-9.090 31.264-15.531 8.317-6.493 14.512-13.402 18.409-20.621 3.909-7.264 5.908-14.509 5.908-21.514 0-6.739-2.616-12.877-7.766-18.225-5.181-5.361-11.72-8.087-19.428-8.087-7.005 0-12.499 1.716-16.304 5.050-3.538 3.147-7.22 8.022-11.298 15.014-4.714 8.934-10.434 15.986-16.979 20.958-6.376 4.804-16.998 7.231-31.608 7.231-13.558 0-24.596-2.719-32.784-8.080-7.896-5.16-11.74-11.071-11.74-18.083 0-4.299 1.24-7.885 3.792-10.974 2.682-3.302 6.481-6.144 11.279-8.553 4.967-2.493 10.096-4.48 15.22-5.873 5.26-1.476 14.084-3.618 26.187-6.409 15.31-3.29 29.389-6.96 41.829-10.936 12.61-4.027 23.493-8.96 32.382-14.736 9.058-5.885 16.24-13.428 21.331-22.459 5.123-9.065 7.7-20.24 7.7-33.24 0-15.531-4.461-29.704-13.24-42.096z" />
<glyph unicode="&#xe632;" d="M45.528 272.132l114.554-99.257-34.33-147.614 129.772 78.277 129.772-78.277-34.329 147.614 114.555 99.257-151.017 12.958-58.98 139.165-58.98-139.165z" />
<glyph unicode="&#xe633;" d="M453.848-19.291l-9.764 242.95 7.469 99.365-21.824 16.080h-79.040c0.008 0.483 0.016 0.952 0.016 1.435 0 33.9-9.906 65.871-27.897 90.030-18.594 24.97-43.564 38.716-70.322 38.716s-51.728-13.753-70.32-38.716c-17.984-24.159-27.897-56.13-27.897-90.030 0-0.491 0.016-0.952 0.016-1.435h-74.349l-21.825-16.080 7.47-99.365-9.765-242.951h398.032zM254.836 42.63c-58.589 0-106.258 47.668-106.258 106.259s47.669 106.258 106.258 106.258 106.258-47.668 106.258-106.258c0-58.59-47.669-106.259-106.258-106.259zM172.916 332.204h159.171c-0.272-4.464-0.779-8.258-1.499-11.489h-156.111c-0.757 3.341-1.28 7.165-1.561 11.489zM350.462 332.204h77.868l-1.094-11.489h-78.048c0.617 3.559 1.038 7.392 1.273 11.489zM252.494 450.904c44.023 0 79.836-49.511 79.836-110.364 0-0.491-0.008-0.952-0.015-1.435h-159.641c-0.007 0.476-0.015 0.944-0.015 1.435 0 60.853 35.812 110.364 79.835 110.364zM154.502 332.204c0.226-4.137 0.64-7.954 1.242-11.489h-73.115l-1.094 11.489h72.967zM300.99 172.574c3.361-3.235 8.317-4.575 12.884-3.38 7.285 1.892 11.678 9.368 9.775 16.654-1.567 6.015-6.993 10.219-13.2 10.219-1.161 0-2.311-0.144-3.443-0.443-6.941-1.803-11.226-8.526-10.031-15.502l-18.094-10.447-19.779 11.418v20.593c4.548 1.313 8.109 4.875 9.378 9.467 2.002 7.259-2.275 14.787-9.531 16.79-1.187 0.327-2.411 0.499-3.643 0.499-6.115 0-11.524-4.123-13.155-10.020-0.969-3.515-0.517-7.195 1.287-10.375 1.594-2.818 4.113-4.947 7.131-6.061v-20.902l-19.797-11.423-17.831 10.301c1.142 4.603-0.171 9.467-3.514 12.846-2.591 2.628-6.043 4.068-9.731 4.068-3.607 0-7.004-1.396-9.577-3.923-2.6-2.565-4.041-5.979-4.067-9.621-0.026-3.652 1.368-7.087 3.923-9.687 2.582-2.627 6.042-4.068 9.721-4.068 3.197 0 6.269 1.115 8.715 3.135l18.094-10.446v-22.859l-17.83-10.301c-3.371 3.243-8.326 4.575-12.892 3.388-7.285-1.894-11.671-9.359-9.776-16.652 1.559-6.017 6.985-10.221 13.201-10.221 1.151 0 2.311 0.145 3.444 0.444 6.831 1.776 11.198 8.634 10.020 15.502l18.094 10.447 19.797-11.425v-20.594c-4.54-1.295-8.091-4.866-9.359-9.449-0.969-3.516-0.517-7.204 1.287-10.366 1.794-3.171 4.73-5.453 8.245-6.423 1.188-0.327 2.419-0.498 3.651-0.498 6.106 0 11.517 4.123 13.147 10.021 1.903 6.904-1.776 13.98-8.408 16.435v20.894l19.787 11.425 17.832-10.293c-1.133-4.602 0.181-9.466 3.514-12.846 2.592-2.627 6.043-4.077 9.731-4.077 3.607 0 7.004 1.396 9.577 3.923 2.6 2.555 4.042 5.971 4.069 9.623 0.027 3.65-1.369 7.085-3.924 9.685-2.591 2.627-6.043 4.068-9.73 4.068-3.19 0-6.252-1.115-8.697-3.144l-18.103 10.446v22.849l17.812 10.31z" />
<glyph unicode="&#xe634;" d="M251.228 431.507c-47.483 0-93.512-17.418-130.3-46.502l-40.897 34.284-25.35-153.038 143.779 54.214-39.219 32.425c25.665 17.808 56.815 28.329 90.156 28.329 85.43 0 154.685-69.255 154.685-154.685s-69.255-154.685-154.685-154.685c-57.624 0-108.849 31.856-136.114 78.796-0.001-0.001-0.025-0.022-0.025-0.022s-0.091 0.187-0.224 0.45c-0.54 0.935-1.093 1.861-1.612 2.807-1.292 2.046-3.121 4.825-5.742 6.935-3.047 2.452-9.231 7.351-21.546 5.625-5.049-0.707-11.139-4.753-14.171-8.243-4.154-4.783-6.248-10.096-6.714-15.374-0.373-4.24 0.705-8.209 1.957-11.286 34.425-66.342 103.35-112.111 182.82-112.111 113.885 0 206.208 93.936 206.208 207.821s-89.119 204.26-203.005 204.26z" />
<glyph unicode="&#xe635;" d="M77.025 424.861h88.929c0 0 22.232 0.662 22.232-22.232s0-88.928 0-88.928 1.47-7.731-6.502-15.719c-7.972-7.987-46.332-46.418-46.332-46.418s22.318-40.936 39.285-60.108c16.968-19.173 40.853-43.115 55.493-53.716 14.641-10.602 51.695-32.575 51.695-32.575l45.416 45.541c0 0 4.064 7.368 16.57 7.368s88.928 0 88.928 0 22.233 0.314 22.233-22.232c0-22.546 0-88.928 0-88.928s0.348-21.224-22.233-22.233c-7.678-0.343-76.698-1.94-154.928 33.113-44.948 20.141-92.767 53.969-133.516 100.609-95.522 109.33-90.311 244.594-89.501 249.126 1.737 9.719 12.157 17.329 22.231 17.329z" />
<glyph unicode="&#xe636;" d="M120.709 66.767c0-24.697 20.025-44.721 44.722-44.721h178.891c24.698 0 44.722 20.024 44.722 44.721v268.337h-268.336v-268.337zM98.348 379.827v-22.361h313.058v22.361c0 12.358-10.024 22.361-22.361 22.361h-55.904l-22.361 22.362h-111.806l-22.362-22.362h-55.903c-12.36 0-22.362-10.003-22.362-22.361z" />
<glyph unicode="&#xe637;" d="M454.712 347.957c-14.611-6.481-30.315-10.861-46.791-12.828 16.82 10.086 29.736 26.050 35.825 45.078-15.742-9.337-33.178-16.116-51.738-19.773-14.859 15.837-36.041 25.726-59.469 25.726-44.996 0-81.474-36.478-81.474-81.474 0-6.385 0.718-12.606 2.107-18.566-67.713 3.396-127.746 35.837-167.931 85.123-7.014-12.034-11.032-26.024-11.032-40.959 0-28.265 14.383-53.203 36.243-67.815-13.355 0.425-25.923 4.087-36.903 10.194 0-0.343 0-0.686 0-1.029 0-39.474 28.087-72.405 65.353-79.888-6.836-1.866-14.034-2.863-21.46-2.863-5.249 0-10.352 0.514-15.329 1.461 10.371-32.365 40.458-55.92 76.111-56.58-27.883-21.853-63.010-34.879-101.183-34.879-6.576 0-13.063 0.387-19.435 1.142 36.052-23.123 78.878-36.611 124.89-36.611 149.854 0 231.81 124.147 231.81 231.811 0 3.529-0.075 7.045-0.234 10.543 15.905 11.497 29.718 25.848 40.64 42.187z" />
<glyph unicode="&#xe638;" d="M155 423.745h275.579v-275.58h-275.579v275.58zM79.843 423.745h50.106v-400.843h-50.106v400.843z" />
<glyph unicode="&#xe639;" d="M429.721 123.142c-23.908 14.026-45.787 18.029-70.361 28.738-23.211 10.113-35.834 16.031-44.474 24.728-8.634 8.705-12.605 13.392-17.94 26.094 7.973 8.019 17.26 31.453 19.245 41.476 9.313 1.313 15.295 12.707 17.933 28.084 2.588 15.185 2.005 18.714 0.673 22.724-1.326 4.029-5.981 9.382-5.981 9.382v43.469c0 0 0.653 18.036-1.992 30.070-2.479 11.286-17.928 45.473-65.072 45.473h-14.602c-47.138 0-62.58-34.188-65.065-45.473-2.644-12.041-1.992-30.070-1.992-30.070v-43.469c0 0-4.644-5.348-5.969-9.382-1.339-4.015-1.922-7.545 0.66-22.724 2.657-15.371 8.627-26.765 17.933-28.084 1.999-10.023 11.273-33.458 19.252-41.476-5.316-12.701-9.3-17.389-17.94-26.094-8.64-8.697-21.276-14.615-44.48-24.728-24.575-10.709-46.459-14.704-70.343-28.738-23.903-14.052-23.248-46.146-23.248-46.146l-0.891-53.875h397l0.89 53.875c-0.005-0 0.654 32.094-23.236 46.145z" />
<glyph unicode="&#xe63a;" d="M53.943 278.743l16.333-21.416c0 0 33.686 26.538 44.917 13.275 11.231-13.275 54.076-173.551 68.391-203.108 12.492-25.937 46.935-60.236 84.711-35.743 37.762 24.493 172.041 130.439 185.768 258.243 22.958 213.77-150.861 138.486-169.449-10.199 48.32 36.71 81.249 29.942 46.949-55.115-18.606-46.145-44.903-72.488-56.134-72.488-11.204 0-19.834 29.341-32.673 80.667-13.276 53.044-22.2 202.265-77.387 191.439-52.044-10.212-111.426-145.556-111.426-145.556z" />
<glyph unicode="&#xe63b;" d="M55.12 284.836l-0.154-179.44c0-22.021 17.852-39.875 39.875-39.875h319.002c22.021 0 39.875 17.854 39.875 39.875v179.44h-398.6zM453.719 344.649c0 22.021-17.854 39.875-39.875 39.875h-319.002c-22.023 0-39.681-17.854-39.681-39.875l-0.019-19.938h398.577v19.938z" />
<glyph unicode="&#xe63c;" d="M290.171 224.609l154.69 154.697c0 0 19.945 18.306 2.050 36.202-17.897 17.896-35.332 1.008-35.332 1.008l-156.658-156.658-156.497 156.497c0 0-18.785 16.599-35.291 0.040-17.224-17.279 0.039-35.29 0.039-35.29l156.5-156.495-156.808-156.807c0 0-16.597-18.786-0.039-35.291 17.279-17.224 35.291 0.039 35.291 0.039l156.804 156.81 155.006-155.001c0 0 18.306-19.945 36.203-2.048 17.895 17.897 1.007 35.332 1.007 35.332l-156.968 156.967z" />
</font>
</defs>
</svg>
